#!OML:ASF Y:\EmotionMaleHayes\Project 1\Capture day 1\Session 1\Male1.ASF
:FULLY-SPECIFIED
:DEGREES
1370
root 39.94 16.6314 17.091 300.647 -74.8173 419.806
lowerback 8.02738 0.336074 -15.8765
upperback 3.19967 -1.00112 -2.78472
thorax -0.891464 -0.684726 6.0187
lowerneck -20.837 -1.05803 0.809429
upperneck 25.826 -2.43484 1.24671
head 11.9584 -0.93718 -0.0852601
rclavicle -1.77322e-014 -4.28754e-014
rhumerus -47.8664 -8.35865 -70.3681
rradius 27.6018
rwrist 2.95759
rhand -11.5768 -34.0422
rfingers 7.12502
rthumb 14.4648 -63.5181
lclavicle -1.77322e-014 -4.28754e-014
lhumerus -12.1677 -8.6523 74.7778
lradius 44.692
lwrist 5.57404
lhand -22.5016 -26.3076
lfingers 7.12502
lthumb 3.92437 3.63597
rfemur -25.8138 -8.42779 6.72463
rtibia 16.8024
rfoot -10.0577 -5.57044
rtoes 20.8871
lfemur 16.7656 1.54297 -31.2964
ltibia 3.30802
lfoot -19.7782 -0.716961
ltoes -18.1981
1371
root 39.8038 16.5982 17.1221 300.884 -74.7235 419.811
lowerback 7.81954 0.298398 -15.9251
upperback 3.16057 -1.01297 -2.75229
thorax -0.81234 -0.6932 6.07787
lowerneck -21.038 -1.08707 0.524812
upperneck 25.7873 -2.46903 1.56597
head 11.9924 -0.934876 0.0756915
rclavicle -2.18042e-015 -2.02512e-014
rhumerus -48.3802 -8.94527 -69.9042
rradius 27.4359
rwrist 3.22807
rhand -11.696 -34.0051
rfingers 7.12502
rthumb 14.3499 -63.4891
lclavicle -2.18042e-015 -2.02512e-014
lhumerus -12.0268 -8.83803 75.1106
lradius 44.9525
lwrist 5.68055
lhand -22.672 -26.3476
lfingers 7.12502
lthumb 3.75989 3.59893
rfemur -25.9492 -8.79799 6.51419
rtibia 14.9707
rfoot -9.67142 -4.41467
rtoes 20.4668
lfemur 17.088 1.3955 -31.4558
ltibia 3.26538
lfoot -19.8064 -0.857885
ltoes -17.662
1372
root 39.6663 16.5648 17.1486 301.381 -74.6332 419.473
lowerback 7.81272 0.256903 -15.8857
upperback 3.05809 -1.07218 -2.76962
thorax -0.907444 -0.708576 6.04359
lowerneck -21.4257 -1.12365 -0.231344
upperneck 26.0694 -2.55699 2.50497
head 12.2077 -0.918543 0.539269
rclavicle 2.3233e-015 3.00662e-014
rhumerus -49.0118 -9.68259 -69.438
rradius 27.2153
rwrist 3.70329
rhand -11.56 -34.0858
rfingers 7.12502
rthumb 14.481 -63.5605
lclavicle 2.3233e-015 3.00662e-014
lhumerus -12.0642 -8.9573 75.388
lradius 45.1292
lwrist 5.56152
lhand -22.8504 -26.4161
lfingers 7.12502
lthumb 3.58753 3.53341
rfemur -25.9192 -8.85835 6.26361
rtibia 13.2343
rfoot -9.04517 -3.51246
rtoes 20.9559
lfemur 17.4971 1.31298 -31.4723
ltibia 3.22638
lfoot -19.8822 -1.06074
ltoes -19.0321
1373
root 39.5265 16.5371 17.1788 301.362 -74.4613 419.504
lowerback 7.8346 0.234593 -16.0034
upperback 3.10852 -1.11144 -2.76992
thorax -0.853162 -0.736371 6.11019
lowerneck -21.4841 -1.15113 0.0873048
upperneck 25.8231 -2.61305 2.25019
head 12.1147 -0.944158 0.380248
rclavicle -2.02698e-014 7.90169e-015
rhumerus -49.3362 -10.4575 -68.9117
rradius 26.9795
rwrist 4.21357
rhand -11.176 -34.3118
rfingers 7.12502
rthumb 14.8509 -63.7595
lclavicle -2.02698e-014 7.90169e-015
lhumerus -12.0357 -8.99397 75.6689
lradius 45.4015
lwrist 5.51386
lhand -22.8215 -26.536
lfingers 7.12502
lthumb 3.6155 3.41306
rfemur -25.737 -8.79332 5.83452
rtibia 11.8108
rfoot -9.3752 -2.31725
rtoes 18.507
lfemur 17.9874 1.09933 -31.7663
ltibia 3.30122
lfoot -20.5953 -0.738859
ltoes -21.2384
1374
root 39.386 16.5115 17.2112 300.971 -74.2179 419.91
lowerback 7.87226 0.228617 -16.1892
upperback 3.2139 -1.13499 -2.79373
thorax -0.750335 -0.76476 6.18696
lowerneck -21.6751 -1.09434 0.0935727
upperneck 25.5852 -2.50727 2.22905
head 12.0575 -0.895237 0.388559
rclavicle 6.8208e-015 -1.66482e-014
rhumerus -49.4649 -11.1408 -68.5097
rradius 26.7367
rwrist 4.72049
rhand -11.0158 -34.2997
rfingers 7.12502
rthumb 15.0052 -63.736
lclavicle 6.8208e-015 -1.66482e-014
lhumerus -11.9493 -8.98484 75.9784
lradius 45.6173
lwrist 5.46663
lhand -22.657 -26.7427
lfingers 7.12502
lthumb 3.77433 3.20359
rfemur -25.699 -8.78189 5.31772
rtibia 10.9368
rfoot -8.89576 -1.55325
rtoes 18.8923
lfemur 18.4357 0.934392 -32.2281
ltibia 3.4474
lfoot -20.3376 -0.584038
ltoes -20.8639
1375
root 39.2441 16.4823 17.2382 301.09 -74.1634 419.786
lowerback 7.9967 0.201163 -16.0838
upperback 2.99911 -1.20864 -2.82746
thorax -1.03965 -0.765611 6.10458
lowerneck -20.4236 -1.14883 0.319412
upperneck 24.8527 -2.60005 2.14053
head 11.525 -0.947558 0.308786
rclavicle 5.00689e-015 -2.35063e-014
rhumerus -50.213 -11.5582 -68.1655
rradius 26.4682
rwrist 5.32895
rhand -10.996 -33.9325
rfingers 7.12502
rthumb 15.0244 -63.3674
lclavicle 5.00689e-015 -2.35063e-014
lhumerus -12.8188 -9.46285 76.2286
lradius 46.1466
lwrist 5.75259
lhand -22.7447 -26.7827
lfingers 7.12502
lthumb 3.68961 3.16509
rfemur -25.6976 -8.53459 5.06768
rtibia 10.4262
rfoot -8.72309 -1.17095
rtoes 18.9588
lfemur 18.914 0.617458 -32.4255
ltibia 3.58794
lfoot -20.7672 -0.150373
ltoes -21.5631
1376
root 39.1015 16.4508 17.2612 301.769 -74.3456 419.05
lowerback 8.19438 0.0560317 -15.9846
upperback 3.09992 -1.40753 -2.55033
thorax -0.990897 -0.870905 6.36543
lowerneck -21.4265 -1.07508 0.302153
upperneck 25.2289 -2.39649 1.78009
head 11.8578 -0.888683 0.205503
rclavicle -2.90723e-015 -4.17448e-015
rhumerus -49.9381 -11.6178 -67.9459
rradius 26.1491
rwrist 5.76734
rhand -10.7564 -33.7962
rfingers 7.12502
rthumb 15.2552 -63.2137
lclavicle -2.90723e-015 -4.17448e-015
lhumerus -13.33 -9.36218 76.5189
lradius 46.8935
lwrist 6.29585
lhand -23.1249 -26.7107
lfingers 7.12502
lthumb 3.32246 3.24318
rfemur -25.7461 -8.22356 5.1905
rtibia 10.4031
rfoot -9.05696 -1.16003
rtoes 18.5285
lfemur 19.4581 0.195475 -32.2611
ltibia 3.70661
lfoot -20.7853 0.204562
ltoes -22.9215
1377
root 38.9571 16.4188 17.2836 302.222 -74.4677 418.543
lowerback 8.34109 0.119791 -15.6823
upperback 3.10863 -1.32481 -2.52573
thorax -1.09151 -0.820554 6.22295
lowerneck -21.4563 -1.12329 0.205086
upperneck 25.0699 -2.48841 2.00981
head 11.8083 -0.907997 0.292762
rclavicle -9.36773e-015 -9.0447e-015
rhumerus -50.3565 -12.2508 -67.7168
rradius 26.0959
rwrist 6.09557
rhand -10.3785 -34.1129
rfingers 7.12502
rthumb 15.6191 -63.5023
lclavicle -9.36773e-015 -9.0447e-015
lhumerus -13.6531 -9.82316 76.92
lradius 47.2207
lwrist 6.45645
lhand -23.205 -26.7466
lfingers 7.12502
lthumb 3.24513 3.20846
rfemur -25.9393 -8.05093 5.27446
rtibia 10.9572
rfoot -9.69802 -1.17338
rtoes 18.4752
lfemur 19.9963 -0.182227 -32.2074
ltibia 3.86435
lfoot -21.0349 0.150801
ltoes -21.414
1378
root 38.8071 16.3887 17.3094 301.98 -74.3204 418.734
lowerback 8.40228 0.172328 -15.7603
upperback 3.19637 -1.26751 -2.52064
thorax -1.04121 -0.802407 6.26637
lowerneck -21.6839 -1.16126 0.232521
upperneck 24.9512 -2.54811 2.03231
head 11.8079 -0.92512 0.286193
rclavicle -1.13556e-014 2.56432e-014
rhumerus -50.5263 -12.7399 -67.54
rradius 25.9493
rwrist 6.45918
rhand -10.1935 -34.2287
rfingers 7.12502
rthumb 15.7973 -63.6041
lclavicle -1.13556e-014 2.56432e-014
lhumerus -13.563 -9.78809 77.5482
lradius 46.9563
lwrist 6.17329
lhand -23.0682 -27.0893
lfingers 7.12502
lthumb 3.37725 2.86365
rfemur -26.1693 -8.11651 5.02298
rtibia 11.8576
rfoot -10.0037 -1.16736
rtoes 17.897
lfemur 20.5535 -0.627705 -32.6884
ltibia 4.08238
lfoot -21.0346 0.799074
ltoes -24.8414
1379
root 38.6537 16.3603 17.338 301.789 -74.1081 418.855
lowerback 8.4353 0.15523 -15.9505
upperback 3.31682 -1.30095 -2.46929
thorax -0.914189 -0.837698 6.42711
lowerneck -21.5726 -1.13528 0.285393
upperneck 24.502 -2.47004 1.9299
head 11.61 -0.899889 0.253747
rclavicle -3.25261e-014 -2.82274e-014
rhumerus -50.5129 -12.8432 -67.5844
rradius 25.9175
rwrist 6.56223
rhand -10.0072 -34.2959
rfingers 7.12502
rthumb 15.9767 -63.657
lclavicle -3.25261e-014 -2.82274e-014
lhumerus -13.4473 -9.58071 78.2286
lradius 46.5779
lwrist 5.94841
lhand -23.1922 -27.3797
lfingers 7.12502
lthumb 3.25745 2.57514
rfemur -26.2703 -8.14384 4.67056
rtibia 12.8062
rfoot -9.90037 -1.31104
rtoes 17.4247
lfemur 21.1634 -1.13294 -33.2548
ltibia 4.29176
lfoot -21.2204 1.12883
ltoes -25.9385
1380
root 38.5017 16.3303 17.3572 302.321 -74.4188 418.183
lowerback 8.58575 0.127335 -15.6601
upperback 3.36768 -1.32719 -2.26255
thorax -0.940537 -0.847922 6.49427
lowerneck -21.7096 -1.10609 0.344436
upperneck 24.3997 -2.40391 1.80204
head 11.5938 -0.87914 0.207019
rclavicle -2.18663e-015 4.57205e-015
rhumerus -50.6323 -12.6022 -67.8451
rradius 26.1359
rwrist 6.39893
rhand -9.82974 -34.3789
rfingers 7.12502
rthumb 16.1476 -63.7262
lclavicle -2.18663e-015 4.57205e-015
lhumerus -13.7871 -9.58044 78.824
lradius 46.5936
lwrist 5.95757
lhand -23.3225 -27.2875
lfingers 7.12502
lthumb 3.13165 2.66922
rfemur -26.2909 -7.32944 4.89431
rtibia 13.7678
rfoot -9.36735 -2.11703
rtoes 19.0313
lfemur 21.7835 -1.74494 -33.1365
ltibia 4.58519
lfoot -21.6583 1.21084
ltoes -24.3515
1381
root 38.3482 16.3039 17.3678 302.874 -74.8911 417.5
lowerback 8.78785 0.146309 -15.1965
upperback 3.38091 -1.2897 -2.07892
thorax -1.05733 -0.816489 6.43735
lowerneck -21.6874 -1.09068 0.29627
upperneck 24.152 -2.38492 1.92235
head 11.4974 -0.859682 0.263354
rclavicle -1.84373e-014 5.56597e-014
rhumerus -50.6475 -12.5719 -68.1184
rradius 26.0653
rwrist 6.47999
rhand -9.85188 -34.0603
rfingers 7.12502
rthumb 16.1263 -63.4094
lclavicle -1.84373e-014 5.56597e-014
lhumerus -14.4494 -9.82616 79.2869
lradius 46.9164
lwrist 6.10764
lhand -23.2491 -27.3675
lfingers 7.12502
lthumb 3.20251 2.58816
rfemur -26.4237 -6.38593 5.39264
rtibia 15.0043
rfoot -8.38253 -3.15585
rtoes 18.888
lfemur 22.301 -2.17064 -32.7498
ltibia 5.01886
lfoot -21.9662 1.49827
ltoes -24.3969
